<?xml version="1.0" encoding="UTF-8" standalone="no"?>
<svg width="50px" height="45px" viewBox="0 0 45 50" version="1.1" xmlns="http://www.w3.org/2000/svg" xmlns:xlink="http://www.w3.org/1999/xlink">
    <g id="Page-1" stroke="none" stroke-width="1" fill="none" fill-rule="evenodd">
        <g id="reindex_white_text_rgb" transform="translate(-44.000000, -107.000000)">
            <g id="Group-9">
                <path d="M50.5210604,139.244706 C51.5941021,139.244706 52.4653729,140.109477 52.4759354,141.180352 L67.3690604,147.780831 L82.2621854,141.180352 C82.2727479,140.109477 83.1434771,139.244706 84.2170604,139.244706 C85.2966021,139.244706 86.1722063,140.12031 86.1722063,141.199852 C86.1722063,142.280206 85.2966021,143.155269 84.2170604,143.155269 C83.7184563,143.155269 83.2631854,142.968665 82.9186854,142.66181 L67.6954146,149.407727 C67.4947271,149.495748 67.2591021,149.50279 67.0427063,149.407727 L51.8194354,142.66181 C51.4743938,142.968665 51.0193938,143.155269 50.5210604,143.155269 C49.4415188,143.155269 48.5659146,142.280206 48.5659146,141.199852 C48.5659146,140.12031 49.4415188,139.244706 50.5210604,139.244706" id="Fill-5" fill="#5BBAE9"></path>
                <path d="M84.2170333,131.778021 C85.296575,131.778021 86.1721792,132.653083 86.1721792,133.733438 C86.1721792,134.812979 85.296575,135.688583 84.2170333,135.688583 C83.7184292,135.688583 83.2634292,135.501167 82.9186583,135.194312 L67.6953875,141.941042 C67.4787208,142.036917 67.2433667,142.029063 67.0426792,141.940771 L50.1946792,134.474167 C49.7857208,134.294333 49.5993875,133.815771 49.7797625,133.406813 C49.8642625,133.21425 50.0159292,133.07125 50.1946792,132.992167 L65.4138875,126.247062 C65.4247208,125.176458 66.2951792,124.311417 67.3690333,124.311417 C68.4488458,124.311417 69.3241792,125.186208 69.3241792,126.266563 C69.3241792,127.346375 68.4488458,128.221979 67.3690333,128.221979 C66.8701583,128.221979 66.4151583,128.035375 66.0698458,127.727708 L52.5197833,133.733438 L67.3690333,140.314146 L82.2621583,133.713667 C82.2727208,132.643063 83.14345,131.778021 84.2170333,131.778021" id="Fill-6" fill="#5BBAE9"></path>
                <path d="M84.2170333,116.845165 C85.296575,116.845165 86.1721792,117.720498 86.1721792,118.800581 C86.1721792,119.880394 85.296575,120.755185 84.2170333,120.755185 C83.14345,120.755185 82.2727208,119.890415 82.2621583,118.820081 L67.3690333,112.219331 L52.4759083,118.820081 C52.4653458,119.890415 51.594075,120.755185 50.5210333,120.755185 C49.4414917,120.755185 48.5658875,119.880394 48.5658875,118.800581 C48.5658875,117.720498 49.4414917,116.845165 50.5210333,116.845165 C51.0193667,116.845165 51.4743667,117.03204 51.8194083,117.338894 L67.0426792,110.592165 C67.259075,110.497102 67.4947,110.504415 67.6953875,110.592435 L82.9186583,117.338894 C83.2634292,117.031498 83.7184292,116.845165 84.2170333,116.845165" id="Fill-7" fill="#74CBC9"></path>
                <path d="M51.8194354,124.805525 L67.0427063,118.059067 C67.2591021,117.963733 67.4947271,117.971046 67.6954146,118.059608 L84.5434146,125.525671 C84.9523729,125.705504 85.1378938,126.184337 84.9583313,126.593025 C84.8738313,126.785587 84.7221646,126.928858 84.5434146,127.007671 L69.3239354,133.752775 C69.3125604,134.82365 68.4423729,135.688421 67.3690604,135.688421 C66.2887063,135.688421 65.4139146,134.813629 65.4139146,133.733275 C65.4139146,132.653462 66.2887063,131.778129 67.3690604,131.778129 C67.8671229,131.778129 68.3221229,131.964733 68.6674354,132.272129 L82.2180396,126.266671 L67.3690604,119.686504 L52.4759354,126.286171 C52.4653729,127.357046 51.5941021,128.221817 50.5210604,128.221817 C49.4415188,128.221817 48.5659146,127.347025 48.5659146,126.266671 C48.5659146,125.187129 49.4415188,124.311525 50.5210604,124.311525 C51.0193938,124.311525 51.4743938,124.498129 51.8194354,124.805525" id="Fill-8" fill="#74CBC9"></path>
            </g>
        </g>
    </g>
</svg>
